<svg xmlns="http://www.w3.org/2000/svg" viewBox="0 0 1600 1000" width="1600" height="1000" role="img" aria-label="ShadowBlade Render queue screen mockup">
  <defs>
    <linearGradient id="q-bg" x1="0" y1="0" x2="1" y2="1">
      <stop offset="0%" stop-color="#0F2A4A" stop-opacity="0.55"/>
      <stop offset="100%" stop-color="#06101F"/>
    </linearGradient>
    <linearGradient id="q-side" x1="0" y1="0" x2="0" y2="1">
      <stop offset="0%" stop-color="rgba(11,20,40,0.95)"/>
      <stop offset="100%" stop-color="rgba(8,14,28,0.85)"/>
    </linearGradient>
    <linearGradient id="q-card" x1="0" y1="0" x2="0" y2="1">
      <stop offset="0%" stop-color="rgba(22,30,48,0.95)"/>
      <stop offset="100%" stop-color="rgba(15,22,38,0.85)"/>
    </linearGradient>
    <linearGradient id="q-mark" x1="0" y1="0" x2="1" y2="1">
      <stop offset="0%" stop-color="#22D3B7"/>
      <stop offset="100%" stop-color="#38BDF8"/>
    </linearGradient>
    <linearGradient id="q-meter" x1="0" y1="0" x2="1" y2="0">
      <stop offset="0%" stop-color="#22D3B7"/>
      <stop offset="100%" stop-color="#38BDF8"/>
    </linearGradient>
  </defs>

  <rect width="1600" height="1000" fill="#06101F"/>
  <rect width="1600" height="1000" fill="url(#q-bg)"/>

  <!-- ── Sidebar ── -->
  <rect width="248" height="1000" fill="url(#q-side)" stroke="rgba(255,255,255,0.06)"/>
  <g transform="translate(20 22)">
    <rect width="32" height="32" rx="10" fill="#0F1D3A" stroke="rgba(34,211,183,0.30)"/>
    <g transform="translate(7 7) scale(0.75)"><path d="M2 2L24 12L2 22V14L14 12L2 10V2Z" fill="url(#q-mark)"/></g>
    <text x="46" y="16" font-family="Inter Display, Inter, sans-serif" font-size="14" font-weight="700" fill="#F7F9FC">ShadowBlade</text>
    <text x="46" y="30" font-family="Inter, sans-serif" font-size="10" letter-spacing="1.2" fill="#5A667F">视频云</text>
  </g>
  <g font-family="Inter, sans-serif" fill="#B6BDCC" font-size="13">
    <text x="22" y="100" font-size="10" letter-spacing="2" font-weight="700" fill="#5A667F">制作</text>
    <text x="38" y="135">工作台</text>
    <text x="38" y="170">编辑器</text>
    <text x="38" y="205">项目</text>
    <text x="38" y="240">模板</text>
    <text x="22" y="296" font-size="10" letter-spacing="2" font-weight="700" fill="#5A667F">素材</text>
    <text x="38" y="331">素材库</text>
    <text x="38" y="365">品牌套件</text>
    <text x="22" y="412" font-size="10" letter-spacing="2" font-weight="700" fill="#5A667F">流水线</text>
    <!-- queue active -->
    <g transform="translate(14 428)">
      <rect width="220" height="32" rx="6" fill="rgba(34,211,183,0.10)"/>
      <rect x="-2" y="6" width="2" height="20" rx="1" fill="#22D3B7"/>
      <text x="24" y="21" fill="#F7F9FC" font-weight="700">渲染队列</text>
      <g transform="translate(190 9)"><rect width="20" height="14" rx="7" fill="rgba(34,211,183,0.20)"/><text x="10" y="10" font-size="9" text-anchor="middle" fill="#6EE2C5" font-weight="700">5</text></g>
    </g>
    <text x="38" y="481">数据分析</text>
  </g>

  <!-- ── Topbar ── -->
  <g transform="translate(248 0)">
    <rect width="1352" height="60" fill="rgba(8,14,28,0.6)" stroke="rgba(255,255,255,0.06)"/>
    <text x="40" y="36" font-family="Inter, sans-serif" font-size="12" fill="#8590A8">Acme  ›  <tspan fill="#F7F9FC" font-weight="700">渲染队列</tspan></text>
    <g transform="translate(960 14)">
      <rect width="170" height="32" rx="6" fill="rgba(255,255,255,0.04)" stroke="rgba(255,255,255,0.12)"/>
      <text x="85" y="22" text-anchor="middle" font-family="Inter, sans-serif" font-size="12" font-weight="600" fill="#F7F9FC">全部暂停（管理员）</text>
    </g>
    <g transform="translate(1142 14)">
      <rect width="190" height="32" rx="6" fill="url(#q-mark)"/>
      <text x="95" y="22" text-anchor="middle" font-family="Inter, sans-serif" font-size="13" font-weight="700" fill="#0A1428">+ 提交渲染</text>
    </g>
  </g>

  <!-- ── Page head ── -->
  <g transform="translate(296 92)">
    <text font-family="Inter, sans-serif" font-size="11" letter-spacing="2.6" font-weight="700" fill="#6EE2C5">流水线 · 渲染农场</text>
    <text y="38" font-family="Inter Display, Inter, sans-serif" font-size="34" font-weight="700" fill="#F7F9FC" letter-spacing="-0.7">渲染队列</text>
    <text y="68" font-family="Inter, sans-serif" font-size="13" fill="#B6BDCC">4 个 worker 在线 · 2 条成片运行中 · 区域 eu-central-1</text>
  </g>

  <!-- ── KPI strip ── -->
  <g transform="translate(296 196)">
    <g>
      <rect width="295" height="120" rx="14" fill="url(#q-card)" stroke="rgba(255,255,255,0.06)"/>
      <text x="20" y="32" font-family="Inter, sans-serif" font-size="12" fill="#8590A8">并发数</text>
      <text x="20" y="72" font-family="Inter Display, Inter, sans-serif" font-size="34" font-weight="700" fill="#F7F9FC">4 <tspan font-size="14" fill="#5A667F" font-weight="500">/ 8 GPU</tspan></text>
      <rect x="20" y="92" width="255" height="6" rx="3" fill="rgba(255,255,255,0.06)"/>
      <rect x="20" y="92" width="128" height="6" rx="3" fill="url(#q-meter)"/>
    </g>
    <g transform="translate(305 0)">
      <rect width="295" height="120" rx="14" fill="url(#q-card)" stroke="rgba(255,255,255,0.06)"/>
      <text x="20" y="32" font-family="Inter, sans-serif" font-size="12" fill="#8590A8">队列中</text>
      <text x="20" y="72" font-family="Inter Display, Inter, sans-serif" font-size="34" font-weight="700" fill="#F7F9FC">5 <tspan font-size="14" fill="#5A667F" font-weight="500">条</tspan></text>
      <g transform="translate(20 86)">
        <rect width="56" height="18" rx="9" fill="rgba(56,189,248,0.14)"/><text x="28" y="13" text-anchor="middle" font-family="Inter, sans-serif" font-size="10" font-weight="700" fill="#38BDF8">2 运行</text>
        <rect x="64" width="64" height="18" rx="9" fill="rgba(251,191,36,0.14)"/><text x="96" y="13" text-anchor="middle" font-family="Inter, sans-serif" font-size="10" font-weight="700" fill="#FBBF24">3 排队</text>
      </g>
    </g>
    <g transform="translate(610 0)">
      <rect width="295" height="120" rx="14" fill="url(#q-card)" stroke="rgba(255,255,255,0.06)"/>
      <text x="20" y="32" font-family="Inter, sans-serif" font-size="12" fill="#8590A8">平均渲染时长</text>
      <text x="20" y="72" font-family="Inter Display, Inter, sans-serif" font-size="34" font-weight="700" fill="#F7F9FC">2:41 <tspan font-size="14" fill="#5A667F" font-weight="500">分钟</tspan></text>
      <g transform="translate(20 86)"><rect width="118" height="20" rx="10" fill="rgba(34,211,183,0.10)"/><text x="59" y="14" text-anchor="middle" font-family="Inter, sans-serif" font-size="11" font-weight="700" fill="#6EE2C5">▼ 周环比 -14%</text></g>
    </g>
    <g transform="translate(915 0)">
      <rect width="295" height="120" rx="14" fill="url(#q-card)" stroke="rgba(255,255,255,0.06)"/>
      <text x="20" y="32" font-family="Inter, sans-serif" font-size="12" fill="#8590A8">Worker 可用率</text>
      <text x="20" y="72" font-family="Inter Display, Inter, sans-serif" font-size="34" font-weight="700" fill="#F7F9FC">99.97 <tspan font-size="14" fill="#5A667F" font-weight="500">%</tspan></text>
      <g transform="translate(20 86)"><rect width="80" height="20" rx="10" fill="rgba(34,211,183,0.10)"/><text x="40" y="14" text-anchor="middle" font-family="Inter, sans-serif" font-size="11" font-weight="700" fill="#6EE2C5">30 天 SLA</text></g>
    </g>
  </g>

  <!-- ── Queue table ── -->
  <g transform="translate(296 344)">
    <rect width="1210" height="510" rx="14" fill="url(#q-card)" stroke="rgba(255,255,255,0.06)"/>

    <!-- Card head -->
    <g transform="translate(22 22)">
      <text font-family="Inter Display, Inter, sans-serif" font-size="14" font-weight="700" fill="#F7F9FC">运行中与排队中的渲染</text>
      <text x="1166" text-anchor="end" font-family="Inter, sans-serif" font-size="12" fill="#8590A8">按优先级排序 · 5 / 5</text>
    </g>
    <line x1="0" y1="60" x2="1210" y2="60" stroke="rgba(255,255,255,0.06)"/>

    <!-- Filter pills -->
    <g transform="translate(22 78)" font-family="Inter, sans-serif">
      <g><rect width="46" height="26" rx="6" fill="rgba(34,211,183,0.12)" stroke="rgba(34,211,183,0.30)"/><text x="23" y="17" text-anchor="middle" font-size="11" font-weight="700" fill="#6EE2C5">全部</text></g>
      <g transform="translate(54 0)"><rect width="68" height="26" rx="6" fill="rgba(255,255,255,0.04)" stroke="rgba(255,255,255,0.12)"/><text x="34" y="17" text-anchor="middle" font-size="11" font-weight="600" fill="#F7F9FC">运行中</text></g>
      <g transform="translate(130 0)"><rect width="68" height="26" rx="6" fill="rgba(255,255,255,0.04)" stroke="rgba(255,255,255,0.12)"/><text x="34" y="17" text-anchor="middle" font-size="11" font-weight="600" fill="#F7F9FC">排队中</text></g>
      <g transform="translate(206 0)"><rect width="62" height="26" rx="6" fill="rgba(255,255,255,0.04)" stroke="rgba(255,255,255,0.12)"/><text x="31" y="17" text-anchor="middle" font-size="11" font-weight="600" fill="#F7F9FC">失败</text></g>
    </g>

    <!-- Table header -->
    <g transform="translate(0 122)" font-family="Inter, sans-serif" font-size="10" letter-spacing="1.8" font-weight="700" fill="#5A667F">
      <rect width="1210" height="34" fill="rgba(255,255,255,0.02)" stroke="rgba(255,255,255,0.06)"/>
      <text x="22" y="22">项目</text>
      <text x="540" y="22">进度</text>
      <text x="820" y="22">WORKER</text>
      <text x="990" y="22">预计</text>
      <text x="1188" y="22" text-anchor="end">优先级</text>
    </g>

    <!-- Row 1 · running rush -->
    <g transform="translate(0 156)" font-family="Inter, sans-serif">
      <rect width="1210" height="68" fill="transparent" stroke="rgba(255,255,255,0.06)"/>
      <g transform="translate(22 18)">
        <rect width="32" height="32" rx="8" fill="rgba(34,211,183,0.18)"/>
        <text x="16" y="22" text-anchor="middle" font-family="Inter Display, Inter, sans-serif" font-size="13" font-weight="700" fill="#6EE2C5">901</text>
      </g>
      <g transform="translate(68 22)">
        <text font-size="13" font-weight="700" fill="#F7F9FC">春季产品发布 — Wearable Hub</text>
        <text y="18" font-family="JetBrains Mono, monospace" font-size="11" fill="#5A667F">9:16 · 28s · 1080×1920 · H.264 high · 60 fps</text>
      </g>
      <g transform="translate(540 30)">
        <rect width="240" height="8" rx="4" fill="rgba(255,255,255,0.06)"/>
        <rect width="149" height="8" rx="4" fill="url(#q-meter)"/>
        <text x="0" y="-6" font-size="11" font-family="JetBrains Mono, monospace" fill="#F7F9FC">62%</text>
        <text x="240" y="-6" text-anchor="end" font-size="11" font-family="JetBrains Mono, monospace" fill="#5A667F">合成</text>
      </g>
      <text x="820" y="42" font-size="12" fill="#F7F9FC" font-family="JetBrains Mono, monospace">gpu-cluster-3</text>
      <text x="990" y="42" font-size="13" font-weight="700" fill="#38BDF8" font-family="JetBrains Mono, monospace">0:64</text>
      <g transform="translate(1132 28)"><rect width="68" height="22" rx="11" fill="rgba(248,113,113,0.14)" stroke="rgba(248,113,113,0.40)"/><text x="34" y="15" text-anchor="middle" font-size="10" font-weight="700" letter-spacing="1.6" fill="#F87171">加急</text></g>
    </g>

    <!-- Row 2 · running high -->
    <g transform="translate(0 224)" font-family="Inter, sans-serif">
      <rect width="1210" height="68" fill="transparent" stroke="rgba(255,255,255,0.06)"/>
      <g transform="translate(22 18)">
        <rect width="32" height="32" rx="8" fill="rgba(56,189,248,0.18)"/>
        <text x="16" y="22" text-anchor="middle" font-family="Inter Display, Inter, sans-serif" font-size="13" font-weight="700" fill="#38BDF8">902</text>
      </g>
      <g transform="translate(68 22)">
        <text font-size="13" font-weight="700" fill="#F7F9FC">AI Copilot — 60 秒产品演示</text>
        <text y="18" font-family="JetBrains Mono, monospace" font-size="11" fill="#5A667F">16:9 · 60s · 1920×1080 · ProRes 422 · 30 fps</text>
      </g>
      <g transform="translate(540 30)">
        <rect width="240" height="8" rx="4" fill="rgba(255,255,255,0.06)"/>
        <rect width="74" height="8" rx="4" fill="url(#q-meter)"/>
        <text x="0" y="-6" font-size="11" font-family="JetBrains Mono, monospace" fill="#F7F9FC">31%</text>
        <text x="240" y="-6" text-anchor="end" font-size="11" font-family="JetBrains Mono, monospace" fill="#5A667F">空镜匹配</text>
      </g>
      <text x="820" y="42" font-size="12" fill="#F7F9FC" font-family="JetBrains Mono, monospace">gpu-cluster-1</text>
      <text x="990" y="42" font-size="13" font-weight="700" fill="#38BDF8" font-family="JetBrains Mono, monospace">2:22</text>
      <g transform="translate(1132 28)"><rect width="68" height="22" rx="11" fill="rgba(34,211,183,0.14)" stroke="rgba(34,211,183,0.40)"/><text x="34" y="15" text-anchor="middle" font-size="10" font-weight="700" letter-spacing="1.6" fill="#6EE2C5">高</text></g>
    </g>

    <!-- Row 3 · queued normal -->
    <g transform="translate(0 292)" font-family="Inter, sans-serif">
      <rect width="1210" height="68" fill="transparent" stroke="rgba(255,255,255,0.06)"/>
      <g transform="translate(22 18)">
        <rect width="32" height="32" rx="8" fill="rgba(255,255,255,0.04)"/>
        <text x="16" y="22" text-anchor="middle" font-family="Inter Display, Inter, sans-serif" font-size="13" font-weight="700" fill="#B6BDCC">903</text>
      </g>
      <g transform="translate(68 22)">
        <text font-size="13" font-weight="700" fill="#F7F9FC">新人入职 · 售前训练营</text>
        <text y="18" font-family="JetBrains Mono, monospace" font-size="11" fill="#5A667F">16:9 · 96s · 1920×1080 · H.264 main · 24 fps</text>
      </g>
      <g transform="translate(540 30)">
        <rect width="240" height="8" rx="4" fill="rgba(255,255,255,0.06)"/>
        <text x="0" y="-6" font-size="11" font-family="JetBrains Mono, monospace" fill="#8590A8">排队中</text>
        <text x="240" y="-6" text-anchor="end" font-size="11" font-family="JetBrains Mono, monospace" fill="#5A667F">第 1 位</text>
      </g>
      <text x="820" y="42" font-size="12" fill="#5A667F" font-family="JetBrains Mono, monospace">— 等待中 —</text>
      <text x="990" y="42" font-size="13" fill="#8590A8" font-family="JetBrains Mono, monospace">10:12</text>
      <g transform="translate(1112 28)"><rect width="88" height="22" rx="11" fill="rgba(255,255,255,0.04)" stroke="rgba(255,255,255,0.12)"/><text x="44" y="15" text-anchor="middle" font-size="10" font-weight="700" letter-spacing="1.6" fill="#B6BDCC">普通</text></g>
    </g>

    <!-- Row 4 · queued normal -->
    <g transform="translate(0 360)" font-family="Inter, sans-serif">
      <rect width="1210" height="68" fill="transparent" stroke="rgba(255,255,255,0.06)"/>
      <g transform="translate(22 18)">
        <rect width="32" height="32" rx="8" fill="rgba(255,255,255,0.04)"/>
        <text x="16" y="22" text-anchor="middle" font-family="Inter Display, Inter, sans-serif" font-size="13" font-weight="700" fill="#B6BDCC">904</text>
      </g>
      <g transform="translate(68 22)">
        <text font-size="13" font-weight="700" fill="#F7F9FC">媒体引述 · Series C 公告</text>
        <text y="18" font-family="JetBrains Mono, monospace" font-size="11" fill="#5A667F">9:16 · 20s · 1080×1920 · H.264 high · 60 fps</text>
      </g>
      <g transform="translate(540 30)">
        <rect width="240" height="8" rx="4" fill="rgba(255,255,255,0.06)"/>
        <text x="0" y="-6" font-size="11" font-family="JetBrains Mono, monospace" fill="#8590A8">排队中</text>
        <text x="240" y="-6" text-anchor="end" font-size="11" font-family="JetBrains Mono, monospace" fill="#5A667F">第 2 位</text>
      </g>
      <text x="820" y="42" font-size="12" fill="#5A667F" font-family="JetBrains Mono, monospace">— 等待中 —</text>
      <text x="990" y="42" font-size="13" fill="#8590A8" font-family="JetBrains Mono, monospace">12:20</text>
      <g transform="translate(1112 28)"><rect width="88" height="22" rx="11" fill="rgba(255,255,255,0.04)" stroke="rgba(255,255,255,0.12)"/><text x="44" y="15" text-anchor="middle" font-size="10" font-weight="700" letter-spacing="1.6" fill="#B6BDCC">普通</text></g>
    </g>

    <!-- Row 5 · queued low -->
    <g transform="translate(0 428)" font-family="Inter, sans-serif">
      <rect width="1210" height="68" fill="transparent"/>
      <g transform="translate(22 18)">
        <rect width="32" height="32" rx="8" fill="rgba(255,255,255,0.04)"/>
        <text x="16" y="22" text-anchor="middle" font-family="Inter Display, Inter, sans-serif" font-size="13" font-weight="700" fill="#B6BDCC">905</text>
      </g>
      <g transform="translate(68 22)">
        <text font-size="13" font-weight="700" fill="#F7F9FC">合规复训 — GDPR 基础要点</text>
        <text y="18" font-family="JetBrains Mono, monospace" font-size="11" fill="#5A667F">16:9 · 180s · 1920×1080 · H.264 main · 24 fps</text>
      </g>
      <g transform="translate(540 30)">
        <rect width="240" height="8" rx="4" fill="rgba(255,255,255,0.06)"/>
        <text x="0" y="-6" font-size="11" font-family="JetBrains Mono, monospace" fill="#8590A8">排队中</text>
        <text x="240" y="-6" text-anchor="end" font-size="11" font-family="JetBrains Mono, monospace" fill="#5A667F">第 3 位</text>
      </g>
      <text x="820" y="42" font-size="12" fill="#5A667F" font-family="JetBrains Mono, monospace">— 等待中 —</text>
      <text x="990" y="42" font-size="13" fill="#8590A8" font-family="JetBrains Mono, monospace">22:20</text>
      <g transform="translate(1132 28)"><rect width="68" height="22" rx="11" fill="rgba(148,163,184,0.12) " stroke="rgba(148,163,184,0.32)"/><text x="34" y="15" text-anchor="middle" font-size="10" font-weight="700" letter-spacing="1.6" fill="#94A3B8">低</text></g>
    </g>
  </g>

  <!-- ── Workers / sparklines panel ── -->
  <g transform="translate(296 880)">
    <rect width="1210" height="92" rx="14" fill="url(#q-card)" stroke="rgba(255,255,255,0.06)"/>
    <text x="22" y="28" font-family="Inter Display, Inter, sans-serif" font-size="13" font-weight="700" fill="#F7F9FC">Worker 集群</text>
    <g font-family="Inter, sans-serif" font-size="11">
      <g transform="translate(22 44)">
        <circle cx="6" cy="0" r="5" fill="#22D3B7"/>
        <text x="20" y="4" fill="#F7F9FC" font-weight="600">gpu-cluster-1</text>
        <text x="120" y="4" fill="#5A667F" font-family="JetBrains Mono, monospace">A100 · 80GB · 78%</text>
        <polyline points="240,4 252,2 264,-2 276,1 288,-4 300,-1 312,-5 324,-3" stroke="#22D3B7" stroke-width="1.4" fill="none"/>
      </g>
      <g transform="translate(376 44)">
        <circle cx="6" cy="0" r="5" fill="#22D3B7"/>
        <text x="20" y="4" fill="#F7F9FC" font-weight="600">gpu-cluster-2</text>
        <text x="120" y="4" fill="#5A667F" font-family="JetBrains Mono, monospace">A100 · 80GB · 空闲</text>
        <polyline points="240,4 252,2 264,3 276,1 288,2 300,1 312,0 324,1" stroke="#38BDF8" stroke-width="1.4" fill="none"/>
      </g>
      <g transform="translate(730 44)">
        <circle cx="6" cy="0" r="5" fill="#22D3B7"/>
        <text x="20" y="4" fill="#F7F9FC" font-weight="600">gpu-cluster-3</text>
        <text x="120" y="4" fill="#5A667F" font-family="JetBrains Mono, monospace">A100 · 80GB · 94%</text>
        <polyline points="240,4 252,-2 264,-6 276,-3 288,-8 300,-6 312,-10 324,-7" stroke="#22D3B7" stroke-width="1.4" fill="none"/>
      </g>
      <g transform="translate(1084 44)">
        <circle cx="6" cy="0" r="5" fill="#FBBF24"/>
        <text x="20" y="4" fill="#F7F9FC" font-weight="600">cpu-fallback</text>
        <text x="120" y="-6" fill="#5A667F" font-size="9" font-family="JetBrains Mono, monospace">待命</text>
      </g>
    </g>
  </g>
</svg>
