<svg xmlns="http://www.w3.org/2000/svg" viewBox="0 0 1600 1000" width="1600" height="1000" role="img" aria-label="ShadowBlade Studio screen mockup">
  <defs>
    <linearGradient id="s-bg" x1="0" y1="0" x2="1" y2="1">
      <stop offset="0%" stop-color="#0F2A4A" stop-opacity="0.55"/>
      <stop offset="100%" stop-color="#06101F"/>
    </linearGradient>
    <linearGradient id="s-side" x1="0" y1="0" x2="0" y2="1">
      <stop offset="0%" stop-color="rgba(11,20,40,0.95)"/>
      <stop offset="100%" stop-color="rgba(8,14,28,0.85)"/>
    </linearGradient>
    <linearGradient id="s-card" x1="0" y1="0" x2="0" y2="1">
      <stop offset="0%" stop-color="rgba(22,30,48,0.95)"/>
      <stop offset="100%" stop-color="rgba(15,22,38,0.85)"/>
    </linearGradient>
    <linearGradient id="s-mark" x1="0" y1="0" x2="1" y2="1">
      <stop offset="0%" stop-color="#22D3B7"/>
      <stop offset="100%" stop-color="#38BDF8"/>
    </linearGradient>
    <linearGradient id="s-stage" x1="0" y1="0" x2="1" y2="1">
      <stop offset="0%" stop-color="#1A2842"/>
      <stop offset="100%" stop-color="#0B1326"/>
    </linearGradient>
    <linearGradient id="s-blkA" x1="0" y1="0" x2="0" y2="1">
      <stop offset="0%" stop-color="rgba(34,211,183,0.4)"/>
      <stop offset="100%" stop-color="rgba(34,211,183,0.14)"/>
    </linearGradient>
    <linearGradient id="s-blkV" x1="0" y1="0" x2="0" y2="1">
      <stop offset="0%" stop-color="rgba(167,139,250,0.4)"/>
      <stop offset="100%" stop-color="rgba(167,139,250,0.14)"/>
    </linearGradient>
    <linearGradient id="s-blkC" x1="0" y1="0" x2="0" y2="1">
      <stop offset="0%" stop-color="rgba(251,191,36,0.36)"/>
      <stop offset="100%" stop-color="rgba(251,191,36,0.12)"/>
    </linearGradient>
    <linearGradient id="s-blkM" x1="0" y1="0" x2="0" y2="1">
      <stop offset="0%" stop-color="rgba(56,189,248,0.36)"/>
      <stop offset="100%" stop-color="rgba(56,189,248,0.12)"/>
    </linearGradient>
  </defs>

  <rect width="1600" height="1000" fill="#06101F"/>
  <rect width="1600" height="1000" fill="url(#s-bg)"/>

  <!-- ── Sidebar (compressed clone) ── -->
  <rect width="248" height="1000" fill="url(#s-side)" stroke="rgba(255,255,255,0.06)"/>
  <g transform="translate(20 22)">
    <rect width="32" height="32" rx="10" fill="#0F1D3A" stroke="rgba(34,211,183,0.30)"/>
    <g transform="translate(7 7) scale(0.75)"><path d="M2 2L24 12L2 22V14L14 12L2 10V2Z" fill="url(#s-mark)"/></g>
    <text x="46" y="16" font-family="Inter Display, Inter, sans-serif" font-size="14" font-weight="700" fill="#F7F9FC">ShadowBlade</text>
    <text x="46" y="30" font-family="Inter, sans-serif" font-size="10" letter-spacing="1.2" fill="#5A667F">VIDEO CLOUD</text>
  </g>
  <g font-family="Inter, sans-serif" fill="#B6BDCC" font-size="13">
    <text x="22" y="100" font-size="10" letter-spacing="2" font-weight="700" fill="#5A667F">PRODUCE</text>
    <text x="38" y="135" fill="#B6BDCC">Dashboard</text>
    <!-- Studio active -->
    <g transform="translate(14 156)">
      <rect width="220" height="32" rx="6" fill="rgba(34,211,183,0.10)"/>
      <rect x="-2" y="6" width="2" height="20" rx="1" fill="#22D3B7"/>
      <text x="24" y="21" fill="#F7F9FC" font-weight="700">Studio</text>
    </g>
    <text x="38" y="217" fill="#B6BDCC">Projects</text>
    <text x="38" y="251" fill="#B6BDCC">Templates</text>
    <text x="22" y="296" font-size="10" letter-spacing="2" font-weight="700" fill="#5A667F">LIBRARY</text>
    <text x="38" y="331" fill="#B6BDCC">Asset library</text>
    <text x="38" y="365" fill="#B6BDCC">Brand kits</text>
    <text x="22" y="412" font-size="10" letter-spacing="2" font-weight="700" fill="#5A667F">PIPELINE</text>
    <text x="38" y="447" fill="#B6BDCC">Render queue</text>
    <text x="38" y="481" fill="#B6BDCC">Analytics</text>
  </g>

  <!-- ── Topbar ── -->
  <g transform="translate(248 0)">
    <rect width="1352" height="60" fill="rgba(8,14,28,0.6)" stroke="rgba(255,255,255,0.06)"/>
    <text x="40" y="36" font-family="Inter, sans-serif" font-size="12" fill="#8590A8">Acme  ›  Studio  ›  <tspan fill="#F7F9FC" font-weight="700">Spring launch — wearable hub</tspan></text>

    <g transform="translate(960 14)">
      <rect width="32" height="32" rx="6" fill="rgba(255,255,255,0.04)" stroke="rgba(255,255,255,0.12)"/>
      <text x="16" y="22" text-anchor="middle" font-family="Inter, sans-serif" font-size="12" fill="#F7F9FC" font-weight="700">⤓</text>
    </g>
    <g transform="translate(1000 14)">
      <rect width="120" height="32" rx="6" fill="rgba(255,255,255,0.04)" stroke="rgba(255,255,255,0.12)"/>
      <text x="60" y="22" text-anchor="middle" font-family="Inter, sans-serif" font-size="12" font-weight="600" fill="#F7F9FC">Share preview</text>
    </g>
    <g transform="translate(1132 14)">
      <rect width="76" height="32" rx="6" fill="rgba(255,255,255,0.04)" stroke="rgba(255,255,255,0.12)"/>
      <text x="38" y="22" text-anchor="middle" font-family="Inter, sans-serif" font-size="12" font-weight="600" fill="#F7F9FC">Save</text>
    </g>
    <g transform="translate(1220 14)">
      <rect width="112" height="32" rx="6" fill="url(#s-mark)"/>
      <text x="56" y="22" text-anchor="middle" font-family="Inter, sans-serif" font-size="13" font-weight="700" fill="#0A1428">▶ Render cut</text>
    </g>
  </g>

  <!-- ── Page head ── -->
  <g transform="translate(296 92)">
    <text font-family="Inter, sans-serif" font-size="11" letter-spacing="2.6" font-weight="700" fill="#6EE2C5">STUDIO · COMPOSITION</text>
    <text y="36" font-family="Inter Display, Inter, sans-serif" font-size="28" font-weight="700" fill="#F7F9FC" letter-spacing="-0.6">Spring launch — wearable hub</text>
    <g transform="translate(0 56)" font-family="Inter, sans-serif" font-size="12" fill="#8590A8">
      <text>28s · 9:16 · scene 3 of 6 · brand kit <tspan fill="#F7F9FC" font-weight="600">Acme · Core</tspan></text>
    </g>
  </g>

  <!-- ── Left: scenes strip ── -->
  <g transform="translate(296 196)">
    <text font-family="Inter Display, Inter, sans-serif" font-size="14" font-weight="700" fill="#F7F9FC">Scenes</text>
    <text x="800" text-anchor="end" font-family="Inter, sans-serif" font-size="12" fill="#8590A8">6 scenes · drag to reorder</text>

    <g transform="translate(0 18)">
      <!-- 5 scene cards in a row -->
      <g>
        <rect width="150" height="120" rx="10" fill="rgba(11,18,32,0.65)" stroke="rgba(255,255,255,0.06)"/>
        <rect width="150" height="78" rx="10" fill="#0F2A4A"/>
        <rect x="14" y="24" width="120" height="34" rx="6" fill="rgba(34,211,183,0.20)"/>
        <text x="74" y="46" text-anchor="middle" font-family="Inter Display, Inter, sans-serif" font-size="12" font-weight="700" fill="#F7F9FC">Cold open</text>
        <text x="124" y="70" font-family="JetBrains Mono, monospace" font-size="9" fill="#F7F9FC">0:03</text>
        <text x="14" y="98" font-family="Inter, sans-serif" font-size="12" font-weight="700" fill="#F7F9FC">Scene 01</text>
        <text x="14" y="112" font-family="Inter, sans-serif" font-size="10" fill="#5A667F">Hero shot</text>
      </g>
      <g transform="translate(162 0)">
        <rect width="150" height="120" rx="10" fill="rgba(11,18,32,0.65)" stroke="rgba(255,255,255,0.06)"/>
        <rect width="150" height="78" rx="10" fill="#162844"/>
        <circle cx="75" cy="39" r="22" fill="rgba(56,189,248,0.30)"/>
        <text x="124" y="70" font-family="JetBrains Mono, monospace" font-size="9" fill="#F7F9FC">0:05</text>
        <text x="14" y="98" font-family="Inter, sans-serif" font-size="12" font-weight="700" fill="#F7F9FC">Scene 02</text>
        <text x="14" y="112" font-family="Inter, sans-serif" font-size="10" fill="#5A667F">Pain point</text>
      </g>
      <g transform="translate(324 0)">
        <rect width="150" height="120" rx="10" fill="rgba(11,18,32,0.65)" stroke="#22D3B7" stroke-width="1.5"/>
        <rect width="150" height="78" rx="10" fill="#0F2A4A"/>
        <circle cx="100" cy="39" r="28" fill="rgba(34,211,183,0.36)"/>
        <circle cx="100" cy="39" r="14" fill="#22D3B7"/>
        <text x="20" y="34" font-family="Inter Display, Inter, sans-serif" font-size="11" font-weight="700" fill="#F7F9FC">HUB</text>
        <text x="124" y="70" font-family="JetBrains Mono, monospace" font-size="9" fill="#F7F9FC">0:06</text>
        <text x="14" y="98" font-family="Inter, sans-serif" font-size="12" font-weight="700" fill="#F7F9FC">Scene 03</text>
        <text x="14" y="112" font-family="Inter, sans-serif" font-size="10" fill="#6EE2C5">Active · editing</text>
      </g>
      <g transform="translate(486 0)">
        <rect width="150" height="120" rx="10" fill="rgba(11,18,32,0.65)" stroke="rgba(255,255,255,0.06)"/>
        <rect width="150" height="78" rx="10" fill="#093D54"/>
        <g transform="translate(20 16)"><rect width="40" height="46" rx="4" fill="rgba(255,255,255,0.10)"/><rect x="48" width="40" height="46" rx="4" fill="rgba(34,211,183,0.20)"/><rect x="96" width="20" height="46" rx="4" fill="rgba(56,189,248,0.20)"/></g>
        <text x="124" y="70" font-family="JetBrains Mono, monospace" font-size="9" fill="#F7F9FC">0:05</text>
        <text x="14" y="98" font-family="Inter, sans-serif" font-size="12" font-weight="700" fill="#F7F9FC">Scene 04</text>
        <text x="14" y="112" font-family="Inter, sans-serif" font-size="10" fill="#5A667F">3 benefits</text>
      </g>
      <g transform="translate(648 0)">
        <rect width="150" height="120" rx="10" fill="rgba(11,18,32,0.65)" stroke="rgba(255,255,255,0.06)"/>
        <rect width="150" height="78" rx="10" fill="#0F2A4A"/>
        <rect x="14" y="22" width="120" height="38" rx="6" fill="rgba(167,139,250,0.20)"/>
        <text x="74" y="46" text-anchor="middle" font-family="Inter Display, Inter, sans-serif" font-size="13" font-weight="700" fill="#F7F9FC">CTA</text>
        <text x="124" y="70" font-family="JetBrains Mono, monospace" font-size="9" fill="#F7F9FC">0:04</text>
        <text x="14" y="98" font-family="Inter, sans-serif" font-size="12" font-weight="700" fill="#F7F9FC">Scene 05</text>
        <text x="14" y="112" font-family="Inter, sans-serif" font-size="10" fill="#5A667F">Pre-order</text>
      </g>
    </g>
  </g>

  <!-- ── Center: Canvas (9:16) ── -->
  <g transform="translate(296 364)">
    <rect width="810" height="430" rx="14" fill="url(#s-card)" stroke="rgba(255,255,255,0.06)"/>
    <text x="22" y="32" font-family="Inter Display, Inter, sans-serif" font-size="14" font-weight="700" fill="#F7F9FC">Canvas</text>
    <g transform="translate(700 18)"><rect width="92" height="22" rx="6" fill="rgba(255,255,255,0.04)" stroke="rgba(255,255,255,0.12)"/><text x="46" y="15" text-anchor="middle" font-family="Inter, sans-serif" font-size="11" font-weight="600" fill="#F7F9FC">Safe areas</text></g>
    <line x1="0" y1="52" x2="810" y2="52" stroke="rgba(255,255,255,0.06)"/>

    <!-- 9:16 phone canvas -->
    <g transform="translate(286 78)">
      <rect width="238" height="336" rx="16" fill="url(#s-stage)" stroke="rgba(255,255,255,0.10)"/>
      <!-- product mark -->
      <g transform="translate(119 168)">
        <circle r="76" fill="rgba(34,211,183,0.12)"/>
        <circle r="48" fill="rgba(34,211,183,0.28)"/>
        <circle r="22" fill="#22D3B7"/>
        <text y="6" text-anchor="middle" font-family="Inter Display, Inter, sans-serif" font-weight="700" font-size="14" fill="#0A1428">HUB</text>
      </g>
      <!-- caption -->
      <g transform="translate(20 268)">
        <rect width="198" height="44" rx="8" fill="rgba(8,14,28,0.85)"/>
        <text x="14" y="20" font-family="Inter Display, Inter, sans-serif" font-size="13" font-weight="700" fill="#F7F9FC">Five sensors.</text>
        <text x="14" y="36" font-family="Inter Display, Inter, sans-serif" font-size="13" font-weight="700" fill="#22D3B7">One quiet wrist.</text>
      </g>
      <!-- safe-area frame -->
      <rect x="12" y="12" width="214" height="312" rx="10" fill="none" stroke="rgba(34,211,183,0.30)" stroke-dasharray="3 4"/>
      <!-- corner timestamp -->
      <g transform="translate(10 10)"><rect width="48" height="16" rx="4" fill="rgba(8,14,28,0.85)"/><text x="24" y="11" text-anchor="middle" font-family="JetBrains Mono, monospace" font-size="9" fill="#22D3B7">0:06</text></g>
    </g>

    <!-- Transport controls -->
    <g transform="translate(280 380)">
      <rect width="250" height="34" rx="17" fill="rgba(11,18,32,0.7)" stroke="rgba(255,255,255,0.10)"/>
      <g transform="translate(40 11)" fill="#F7F9FC"><polygon points="0,0 -8,6 -8,-6"/></g>
      <g transform="translate(98 9)"><circle r="11" fill="url(#s-mark)"/><polygon points="-3,-5 5,0 -3,5" fill="#0A1428" transform="translate(126 8)"/></g>
      <g transform="translate(122 17)" fill="#0A1428"><polygon points="-3,-5 5,0 -3,5"/></g>
      <g transform="translate(160 11)" fill="#F7F9FC"><polygon points="0,0 8,6 8,-6"/></g>
      <text x="200" y="22" font-family="JetBrains Mono, monospace" font-size="11" fill="#F7F9FC">00:06 / 00:28</text>
    </g>

    <!-- Frame metrics -->
    <g transform="translate(22 92)" font-family="Inter, sans-serif" font-size="11" fill="#5A667F">
      <text y="0" letter-spacing="2.2" font-weight="700">RESOLUTION</text>
      <text y="18" fill="#F7F9FC" font-weight="600" font-family="JetBrains Mono, monospace">1080 × 1920</text>
      <text y="46" letter-spacing="2.2" font-weight="700">FPS</text>
      <text y="64" fill="#F7F9FC" font-weight="600" font-family="JetBrains Mono, monospace">60</text>
      <text y="92" letter-spacing="2.2" font-weight="700">DURATION</text>
      <text y="110" fill="#F7F9FC" font-weight="600" font-family="JetBrains Mono, monospace">00:28.000</text>
      <text y="138" letter-spacing="2.2" font-weight="700">VOICE</text>
      <text y="156" fill="#F7F9FC" font-weight="600">alloy-en-female</text>
      <text y="172" font-family="JetBrains Mono, monospace" fill="#5A667F">-14 LUFS · 4 takes</text>
    </g>
  </g>

  <!-- ── Right: Inspector ── -->
  <g transform="translate(1130 196)">
    <rect width="376" height="598" rx="14" fill="url(#s-card)" stroke="rgba(255,255,255,0.06)"/>
    <g transform="translate(22 22)">
      <text font-family="Inter Display, Inter, sans-serif" font-size="14" font-weight="700" fill="#F7F9FC">Inspector · Scene 03</text>
      <text y="18" font-family="Inter, sans-serif" font-size="11" fill="#5A667F">Brand kit locked · Acme · Core</text>
    </g>

    <!-- Layer rows -->
    <g transform="translate(16 76)" font-family="Inter, sans-serif">
      <text x="6" y="0" font-size="10" letter-spacing="2" font-weight="700" fill="#5A667F">LAYERS</text>
      <g transform="translate(0 12)">
        <rect width="344" height="40" rx="8" fill="rgba(11,18,32,0.55)" stroke="rgba(255,255,255,0.06)"/>
        <rect x="12" y="12" width="14" height="14" rx="3" fill="rgba(34,211,183,0.30)"/>
        <text x="34" y="24" font-size="12" font-weight="700" fill="#F7F9FC">Hero shot</text>
        <text x="34" y="36" font-size="10" font-family="JetBrains Mono, monospace" fill="#5A667F">b-roll · 0:00 → 0:06</text>
        <text x="332" y="26" text-anchor="end" font-size="10" font-family="JetBrains Mono, monospace" fill="#8590A8">100%</text>
      </g>
      <g transform="translate(0 60)">
        <rect width="344" height="40" rx="8" fill="rgba(11,18,32,0.55)" stroke="rgba(167,139,250,0.32)"/>
        <rect x="12" y="12" width="14" height="14" rx="3" fill="rgba(167,139,250,0.30)"/>
        <text x="34" y="24" font-size="12" font-weight="700" fill="#F7F9FC">Voice · take 02</text>
        <text x="34" y="36" font-size="10" font-family="JetBrains Mono, monospace" fill="#5A667F">audio · -14 LUFS · ducked</text>
        <text x="332" y="26" text-anchor="end" font-size="10" font-family="JetBrains Mono, monospace" fill="#8590A8">80%</text>
      </g>
      <g transform="translate(0 108)">
        <rect width="344" height="40" rx="8" fill="rgba(11,18,32,0.55)" stroke="rgba(251,191,36,0.32)"/>
        <rect x="12" y="12" width="14" height="14" rx="3" fill="rgba(251,191,36,0.30)"/>
        <text x="34" y="24" font-size="12" font-weight="700" fill="#F7F9FC">Caption</text>
        <text x="34" y="36" font-size="10" font-family="JetBrains Mono, monospace" fill="#5A667F">"Five sensors. One quiet wrist."</text>
        <text x="332" y="26" text-anchor="end" font-size="10" font-family="JetBrains Mono, monospace" fill="#8590A8">100%</text>
      </g>
      <g transform="translate(0 156)">
        <rect width="344" height="40" rx="8" fill="rgba(11,18,32,0.55)" stroke="rgba(56,189,248,0.32)"/>
        <rect x="12" y="12" width="14" height="14" rx="3" fill="rgba(56,189,248,0.30)"/>
        <text x="34" y="24" font-size="12" font-weight="700" fill="#F7F9FC">Music bed</text>
        <text x="34" y="36" font-size="10" font-family="JetBrains Mono, monospace" fill="#5A667F">cinematic-lift · 95 bpm</text>
        <text x="332" y="26" text-anchor="end" font-size="10" font-family="JetBrains Mono, monospace" fill="#8590A8">22%</text>
      </g>
    </g>

    <!-- Brand checklist -->
    <g transform="translate(16 360)" font-family="Inter, sans-serif">
      <text x="6" y="0" font-size="10" letter-spacing="2" font-weight="700" fill="#5A667F">BRAND CHECK</text>
      <g transform="translate(0 12)">
        <rect width="344" height="172" rx="10" fill="rgba(11,18,32,0.5)" stroke="rgba(255,255,255,0.06)"/>
        <g transform="translate(16 28)" font-size="12" fill="#F7F9FC">
          <g>
            <circle cx="8" cy="-3" r="7" fill="rgba(34,211,183,0.20)" stroke="#22D3B7"/>
            <path d="M5 -3l2 2 4-5" stroke="#22D3B7" stroke-width="1.6" fill="none"/>
            <text x="24">Palette matches Acme · Core</text>
          </g>
          <g transform="translate(0 26)">
            <circle cx="8" cy="-3" r="7" fill="rgba(34,211,183,0.20)" stroke="#22D3B7"/>
            <path d="M5 -3l2 2 4-5" stroke="#22D3B7" stroke-width="1.6" fill="none"/>
            <text x="24">Type stack · Inter Display + Inter</text>
          </g>
          <g transform="translate(0 52)">
            <circle cx="8" cy="-3" r="7" fill="rgba(34,211,183,0.20)" stroke="#22D3B7"/>
            <path d="M5 -3l2 2 4-5" stroke="#22D3B7" stroke-width="1.6" fill="none"/>
            <text x="24">Caption ≤ 14 words on-screen</text>
          </g>
          <g transform="translate(0 78)">
            <circle cx="8" cy="-3" r="7" fill="rgba(251,191,36,0.18)" stroke="#FBBF24"/>
            <text x="8" y="0" text-anchor="middle" font-size="11" font-weight="700" fill="#FBBF24">!</text>
            <text x="24" fill="#FBBF24">Outro logo missing safe-area pad</text>
          </g>
          <g transform="translate(0 104)">
            <circle cx="8" cy="-3" r="7" fill="rgba(255,255,255,0.04)" stroke="rgba(255,255,255,0.18)"/>
            <text x="24" fill="#8590A8">Legal disclaimer (auto on render)</text>
          </g>
        </g>
        <g transform="translate(16 156)"><rect width="312" height="26" rx="6" fill="url(#s-mark)"/><text x="156" y="17" text-anchor="middle" font-size="12" font-weight="700" fill="#0A1428">Auto-fix 1 issue</text></g>
      </g>
    </g>
  </g>

  <!-- ── Bottom: Timeline ── -->
  <g transform="translate(296 820)">
    <rect width="1210" height="148" rx="14" fill="url(#s-card)" stroke="rgba(255,255,255,0.06)"/>
    <g transform="translate(22 18)">
      <text font-family="Inter Display, Inter, sans-serif" font-size="14" font-weight="700" fill="#F7F9FC">Timeline</text>
      <text x="1166" text-anchor="end" font-family="JetBrains Mono, monospace" font-size="11" fill="#8590A8">00:00 — 00:28</text>
    </g>
    <!-- ruler -->
    <g transform="translate(120 40)" font-family="JetBrains Mono, monospace" font-size="9" fill="#5A667F">
      <text x="0">0:00</text><text x="186" text-anchor="middle">0:05</text><text x="372" text-anchor="middle">0:10</text><text x="558" text-anchor="middle">0:15</text><text x="744" text-anchor="middle">0:20</text><text x="930" text-anchor="middle">0:25</text><text x="1080" text-anchor="end">0:28</text>
    </g>

    <!-- track labels -->
    <g transform="translate(22 64)" font-family="Inter, sans-serif" font-size="10" fill="#8590A8">
      <text y="14">B-roll</text>
      <text y="40">Voice</text>
      <text y="66">Caption</text>
      <text y="92">Music</text>
    </g>

    <!-- tracks -->
    <g transform="translate(120 52)">
      <!-- B-roll -->
      <rect width="1080" height="18" rx="4" fill="rgba(255,255,255,0.03)"/>
      <rect x="0" width="220" height="18" rx="3" fill="url(#s-blkA)" stroke="rgba(34,211,183,0.55)"/>
      <text x="10" y="12" font-family="Inter, sans-serif" font-size="9" fill="#F7F9FC">hero shot</text>
      <rect x="232" width="190" height="18" rx="3" fill="url(#s-blkA)" stroke="rgba(34,211,183,0.55)"/>
      <text x="240" y="12" font-family="Inter, sans-serif" font-size="9" fill="#F7F9FC">pain point</text>
      <rect x="436" width="240" height="18" rx="3" fill="url(#s-blkA)" stroke="rgba(34,211,183,0.55)"/>
      <text x="444" y="12" font-family="Inter, sans-serif" font-size="9" fill="#F7F9FC">product reveal</text>
      <rect x="688" width="180" height="18" rx="3" fill="url(#s-blkA)" stroke="rgba(34,211,183,0.55)"/>
      <text x="696" y="12" font-family="Inter, sans-serif" font-size="9" fill="#F7F9FC">benefits</text>
      <rect x="880" width="200" height="18" rx="3" fill="url(#s-blkA)" stroke="rgba(34,211,183,0.55)"/>
      <text x="888" y="12" font-family="Inter, sans-serif" font-size="9" fill="#F7F9FC">cta</text>

      <!-- Voice -->
      <g transform="translate(0 24)">
        <rect width="1080" height="18" rx="4" fill="rgba(255,255,255,0.03)"/>
        <rect x="14" width="420" height="18" rx="3" fill="url(#s-blkV)" stroke="rgba(167,139,250,0.55)"/>
        <text x="24" y="12" font-family="Inter, sans-serif" font-size="9" fill="#F7F9FC">"meet the hub that listens but never interrupts"</text>
        <rect x="450" width="380" height="18" rx="3" fill="url(#s-blkV)" stroke="rgba(167,139,250,0.55)"/>
        <text x="460" y="12" font-family="Inter, sans-serif" font-size="9" fill="#F7F9FC">"five sensors, one quiet wrist…"</text>
        <rect x="846" width="220" height="18" rx="3" fill="url(#s-blkV)" stroke="rgba(167,139,250,0.55)"/>
        <text x="856" y="12" font-family="Inter, sans-serif" font-size="9" fill="#F7F9FC">"pre-order now"</text>
      </g>

      <!-- Caption -->
      <g transform="translate(0 48)">
        <rect width="1080" height="18" rx="4" fill="rgba(255,255,255,0.03)"/>
        <rect x="14" width="200" height="18" rx="3" fill="url(#s-blkC)" stroke="rgba(251,191,36,0.55)"/>
        <rect x="230" width="200" height="18" rx="3" fill="url(#s-blkC)" stroke="rgba(251,191,36,0.55)"/>
        <rect x="446" width="240" height="18" rx="3" fill="url(#s-blkC)" stroke="rgba(251,191,36,0.55)"/>
        <rect x="700" width="180" height="18" rx="3" fill="url(#s-blkC)" stroke="rgba(251,191,36,0.55)"/>
        <rect x="894" width="186" height="18" rx="3" fill="url(#s-blkC)" stroke="rgba(251,191,36,0.55)"/>
      </g>

      <!-- Music -->
      <g transform="translate(0 72)">
        <rect width="1080" height="18" rx="4" fill="rgba(255,255,255,0.03)"/>
        <rect x="0" width="1080" height="18" rx="3" fill="url(#s-blkM)" stroke="rgba(56,189,248,0.55)"/>
        <text x="10" y="12" font-family="Inter, sans-serif" font-size="9" fill="#F7F9FC">cinematic-lift · ducked under VO</text>
      </g>

      <!-- Playhead at ~6s -->
      <line x1="220" y1="-8" x2="220" y2="98" stroke="#22D3B7" stroke-width="2"/>
      <circle cx="220" cy="-8" r="4" fill="#22D3B7"/>
    </g>
  </g>
</svg>
